<?xml version="1.0" encoding="UTF-8"?>
<svg xmlns="http://www.w3.org/2000/svg" width="418.76" height="135.51" viewBox="0 0 418.76 135.51">
  <title>agrimo-logo</title>
  <path d="M90.7,9.49,87.27,0H49L0,135.52H34.56L58.2,65.43c-4.8-7-8.1-19.33-.49-40.51l3-8.31,7,5.46c.63.48,13.31,10.78,11.07,34.12,2.06-1.32,4.2-2.55,6.43-3.73C80.59,45.77,76.29,32.08,90.7,9.49ZM121.42,94.4l-5.25-14.51a46.73,46.73,0,0,1-7.88.64,66.07,66.07,0,0,1-19.12-3.08L87,76.79c-1.39,1.24-2.77,2.55-4.11,3.95L83,81a39.7,39.7,0,0,1,4.89-.29c6.63,0,14.19,1.52,22.48,4.49l8.32,3-5.46,7c-.31.4-7,8.75-21.8,10.84l1.76,5.2,8.21,24.37H136.3Z" transform="translate(-0.01 -0.01)" fill="#eddd5e"></path>
  <path d="M108.18,91.17s-11.55,14.7-40.43,6.3C67.75,97.47,74.57,79.08,108.18,91.17Z" transform="translate(-0.01 -0.01)" fill="#5b8b51"></path>
  <path d="M63.71,27.08S78.41,38.63,70,67.51C70,67.51,51.63,60.69,63.71,27.08Z" transform="translate(-0.01 -0.01)" fill="#5b8b51"></path>
  <path d="M97,11.43s11.5,14.73-3.55,40.76C93.48,52.19,77.27,41.17,97,11.43Z" transform="translate(-0.01 -0.01)" fill="#5b8b51"></path>
  <path d="M131.51,65.54S119.79,80.1,91,71.36C91,71.36,98.05,53.06,131.51,65.54Z" transform="translate(-0.01 -0.01)" fill="#5b8b51"></path>
  <path d="M69.93,135.52s-12.38-6.56-15.3-27,13.12-42.25,40.8-53.92c11.71-4.93,18.6-11,22.65-16.44-2.79-3.87-7.47-14.76,8-33.75,0,0,9.45,21.59-4.88,34-2.86,6.78-8.74,14.86-20.72,21.32C78.42,71.68,50.25,97.64,69.93,135.52Z" transform="translate(-0.01 -0.01)" fill="#5b8b51"></path>
  <path d="M153.84,84.07q0-9.64,3-16a22.64,22.64,0,0,1,7.85-9.46,18.14,18.14,0,0,1,10.08-3.13A21.6,21.6,0,0,1,183.19,57a21.2,21.2,0,0,1,6,3.71,32.65,32.65,0,0,1,4.31,4.58l-1.74,10.24a25.29,25.29,0,0,0-7-7.57,14,14,0,0,0-8-2.89,8,8,0,0,0-5.48,2.1,14,14,0,0,0-3.73,6.32,35,35,0,0,0-1.36,10.6q0,9.44,2.72,13.6t6.54,4.17a13.8,13.8,0,0,0,8.13-2.75,19.27,19.27,0,0,0,6.1-7.17l1.8,9.16a22,22,0,0,1-4.28,5,25.63,25.63,0,0,1-6.4,4.11,18.85,18.85,0,0,1-7.91,1.66,16,16,0,0,1-10.6-3.51,21.09,21.09,0,0,1-6.33-9.76A45.86,45.86,0,0,1,153.84,84.07Zm48-21.69a8.12,8.12,0,0,0-2.37,4.19,23.55,23.55,0,0,0-.68,5.78v31.78a87.44,87.44,0,0,1-.57,10.91,31.83,31.83,0,0,1-1.75,7.41,18.67,18.67,0,0,1-2.91,5.12,18.13,18.13,0,0,1-7.42,5.37,28,28,0,0,1-10.95,2,50.06,50.06,0,0,1-10.2-1.06,53.12,53.12,0,0,1-8.94-2.59,16.75,16.75,0,0,1,.93-4.88,12.34,12.34,0,0,1,2.23-4.17,38,38,0,0,0,7.5,2.51,33.17,33.17,0,0,0,7.33.93q5.28,0,8.12-2a9.79,9.79,0,0,0,3.87-5.26,24.4,24.4,0,0,0,1-7.33V70.83a18.71,18.71,0,0,1,2.42-9.6q2.43-4.14,8-5.07a9.66,9.66,0,0,1,2.73,2.73A9.38,9.38,0,0,1,201.86,62.38Z" transform="translate(-0.01 -0.01)" fill="#414b3d"></path>
  <path d="M212.05,62.59a12.43,12.43,0,0,1,1.7-3.59,10.18,10.18,0,0,1,2.56-2.84,12.44,12.44,0,0,1,8.61,5.51,23,23,0,0,1,3.27,11.12v38.1a32.49,32.49,0,0,1-6,.49,33.71,33.71,0,0,1-6.1-.49V73.82a17,17,0,0,0-1.31-7.19A12.37,12.37,0,0,0,212.05,62.59Zm35-5.67a26.63,26.63,0,0,1-.71,5.62,17.75,17.75,0,0,1-2.23,5.72,18.23,18.23,0,0,0-2.29-.38l-2.35-.22a10.54,10.54,0,0,0-5.17,1.23,13,13,0,0,0-3.85,3.19,20.11,20.11,0,0,0-2.72,4.39,49.52,49.52,0,0,0-1.94,4.82l-1.69-2.12a43.48,43.48,0,0,1,1.09-8,27.43,27.43,0,0,1,2.86-7.44,15.61,15.61,0,0,1,5.13-5.48,14.16,14.16,0,0,1,7.88-2.07,25.75,25.75,0,0,1,3,.16A26.11,26.11,0,0,1,247.05,56.92Z" transform="translate(-0.01 -0.01)" fill="#414b3d"></path>
  <path d="M271.47,110.89a37.59,37.59,0,0,1-12.1,0V71.48a7.25,7.25,0,0,0-1-4.28c-.69-1-1.94-1.44-3.76-1.44h-1.3a18.26,18.26,0,0,1-.5-4.26c0-.69,0-1.4.11-2.15a16.72,16.72,0,0,1,.39-2.26c1.41-.18,2.78-.31,4.08-.38s2.38-.11,3.22-.11h1.64A8.72,8.72,0,0,1,269,59.32a10.66,10.66,0,0,1,2.48,7.47ZM256,42.32a11.93,11.93,0,0,1,1-5.07,11.07,11.07,0,0,1,2.86-1,14.91,14.91,0,0,1,3.46-.41,16.31,16.31,0,0,1,3.49.41,8.63,8.63,0,0,1,2.83,1,13.51,13.51,0,0,1,.74,2.45,12.69,12.69,0,0,1,.3,2.62,12.3,12.3,0,0,1-1,5.12,7.68,7.68,0,0,1-2.8,1,17.94,17.94,0,0,1-3.52.38,16.83,16.83,0,0,1-3.52-.38,8.91,8.91,0,0,1-2.8-1A12.3,12.3,0,0,1,256,42.32Z" transform="translate(-0.01 -0.01)" fill="#414b3d"></path>
  <path d="M293,56.43c2.47,0,4.23.78,5.29,2.32a11.17,11.17,0,0,1,1.58,6.35v45.79a32,32,0,0,1-6,.49,33.71,33.71,0,0,1-6.1-.49V57.2l.71-.77Zm24.2,20.5q0-5.5-1.6-7.77a5.4,5.4,0,0,0-4.67-2.26,11.21,11.21,0,0,0-5.61,1.75,23.59,23.59,0,0,0-5.56,4.55,21.27,21.27,0,0,0-4,6.18V67.83a35.11,35.11,0,0,1,5.48-6,26.74,26.74,0,0,1,6.59-4.25A17.56,17.56,0,0,1,315,56a13.22,13.22,0,0,1,7.9,2.26,13.68,13.68,0,0,1,4.74,6.11A22.4,22.4,0,0,1,329.26,73v37.88a31.59,31.59,0,0,1-6,.49,33.83,33.83,0,0,1-6.11-.49Zm29.55-.11q0-5.5-1.66-7.71a5.5,5.5,0,0,0-4.66-2.21,11.13,11.13,0,0,0-5.51,1.69,23.79,23.79,0,0,0-5.59,4.55,26.37,26.37,0,0,0-4.39,6.52v-13a40,40,0,0,1,5.86-5.37,29.71,29.71,0,0,1,6.79-3.84,19.12,19.12,0,0,1,7.2-1.42,13,13,0,0,1,7.9,2.29,13.7,13.7,0,0,1,4.64,6.16,23.44,23.44,0,0,1,1.52,8.61v26a33,33,0,0,0,.44,5.48,13.63,13.63,0,0,0,1.52,4.5,11,11,0,0,1-3.38,1.88,12.29,12.29,0,0,1-4.25.74q-3.54,0-5-2A9.58,9.58,0,0,1,346.7,104Z" transform="translate(-0.01 -0.01)" fill="#414b3d"></path>
  <path d="M418.77,84a37.83,37.83,0,0,1-2.7,14.8,22.1,22.1,0,0,1-8,10,22.82,22.82,0,0,1-13.11,3.59q-7.85,0-13.13-3.65a22.28,22.28,0,0,1-8-10.06A37.89,37.89,0,0,1,371.18,84a38.05,38.05,0,0,1,2.69-14.8,22.33,22.33,0,0,1,8-10,25.51,25.51,0,0,1,26.25,0,22.25,22.25,0,0,1,8,10.06A37.85,37.85,0,0,1,418.77,84Zm-35.11,0a44.29,44.29,0,0,0,.95,9.35A15,15,0,0,0,388,100.4a9,9,0,0,0,7,2.7,8.77,8.77,0,0,0,6.89-2.7,15.34,15.34,0,0,0,3.41-7.09,45.19,45.19,0,0,0,0-18.72,15.48,15.48,0,0,0-3.41-7.14A8.72,8.72,0,0,0,395,64.72a8.9,8.9,0,0,0-7,2.73,15.19,15.19,0,0,0-3.41,7.14A44.69,44.69,0,0,0,383.66,84Z" transform="translate(-0.01 -0.01)" fill="#414b3d"></path>
</svg>
